<svg viewBox="0 0 500 500" fill="none"
  xmlns="http://www.w3.org/2000/svg">
  <path fill-rule="evenodd" clip-rule="evenodd" d="M240.647 18.0451C227.91 22.2066 194.205 47.2965 176.035 66.1434C150.79 92.3272 135.449 119.221 128.227 149.957C126.1 159.007 124.263 177.966 125.053 182.705C126.564 191.766 130.593 200.889 136.238 208.03L139.876 212.632L134.985 214.66C127.584 217.727 108.749 228.733 98.8995 235.746C84.9903 245.647 78.2546 254.316 74.4763 267.174C73.4446 270.686 66.8403 300.477 59.8 333.376C50.771 375.569 47 394.945 47 399.136C47 407.021 49.8971 417.992 53.8406 425.044C66.2173 447.175 89.4181 469.023 109.357 477.324C124.971 483.824 114.299 483.365 249.964 483.365H372.198L380.408 480.802C401.545 474.201 420.585 459.633 436.962 437.533C447.335 423.534 451.962 411.557 452 398.599C452.016 392.768 428.223 279.474 424.205 266.262C420.562 254.277 414.656 246.447 402.36 237.304C393.719 230.878 377.928 221.385 367.108 216.11L359.281 212.295L362.3 208.72C366.835 203.351 370.66 195.605 372.71 187.644C374.377 181.172 374.457 179.467 373.588 169.113C369.749 123.394 343.736 80.0545 298.444 43.9196C287.276 35.0083 269.149 22.8478 262.329 19.6907C256.307 16.904 246.434 16.1541 240.647 18.0451ZM258.124 35.4179C269.809 41.5077 287.985 54.928 303.061 68.5954C326.875 90.1844 345.947 119.318 353.404 145.499L355.123 151.532L347.392 146.679C322.641 131.139 278.908 123.331 232.404 126.149C195.81 128.365 170.58 134.778 151.624 146.679L143.893 151.532L145.513 145.955C156.346 108.661 184.569 73.14 226.002 44.6548C237.08 37.038 246.114 32.2836 249.508 32.2836C250.94 32.2836 254.818 33.6939 258.124 35.4179ZM289.872 144.059C297.425 145.211 300.591 146.056 300.591 146.919C300.591 147.594 299.969 152.35 299.209 157.489C297.618 168.25 294.288 176.05 288.928 181.573C283.286 187.387 270.109 197.244 264.409 199.914C259.669 202.136 258.037 202.408 249.508 202.408C240.662 202.408 239.476 202.191 234 199.566C227.327 196.366 212.099 184.458 208.122 179.33C203.727 173.661 201.295 167.256 199.827 157.481C199.056 152.346 198.425 147.584 198.425 146.9C198.425 145.994 201.576 145.248 210.055 144.15C216.452 143.322 222.917 142.482 224.422 142.283C225.927 142.085 238.858 142.036 253.157 142.173C272.488 142.36 281.903 142.844 289.872 144.059ZM183.366 154.746C186.448 178.543 191.384 187.332 210.063 202.281C225.009 214.241 232.593 217.816 245.427 218.951C260.414 220.276 272.466 215.622 289.41 201.97C307.557 187.346 312.603 178.262 315.654 154.713C316.371 149.174 315.714 149.227 326.853 153.808C339.81 159.136 352.995 169.642 356.837 177.7C358.161 180.477 358.21 181.434 357.2 184.817C351.285 204.634 326.24 221.076 290.101 228.869C258.667 235.648 239.459 235.613 208.459 228.723C171.868 220.589 146.979 204.091 141.765 184.513C140.713 180.567 140.794 180.041 143.038 176.212C146.261 170.713 155.143 162.644 162.505 158.526C167.754 155.591 180.437 150.078 182.147 149.988C182.477 149.971 183.025 152.113 183.366 154.746ZM158.144 226.58C179.844 239.932 218.472 249.727 249.508 249.748C281.429 249.769 321.511 239.265 343.586 225.094C345.956 223.572 346.177 223.644 360.006 230.445C375.447 238.039 394.659 250.291 400.422 256.221C408.053 264.073 408.177 264.491 422.313 330.324C429.507 363.824 435.661 393.286 435.987 395.794C437.256 405.525 433.409 415.877 423.652 428.984C413.043 443.234 400.571 454.298 387.934 460.671L381.776 463.776L381.771 460.344C381.764 455.097 380.18 450.509 376.891 446.199L373.904 442.286L376.495 438.713C381.896 431.265 381.834 432.255 381.566 357.418L381.32 289.067L378.905 283.915C375.829 277.354 370.228 271.754 363.667 268.678L358.515 266.262H249.508H140.5L135.348 268.678C128.788 271.754 123.187 277.354 120.111 283.915L117.695 289.067L117.451 358.088C117.212 425.325 117.253 427.233 119.04 431.976C120.049 434.653 121.843 438.047 123.027 439.519L125.181 442.196L122.159 446.155C118.837 450.506 117.252 455.082 117.245 460.344L117.239 463.776L111.082 460.671C98.4443 454.298 85.9727 443.234 75.3639 428.984C65.607 415.877 61.7593 405.525 63.0282 395.794C63.3548 393.286 69.5085 363.824 76.702 330.324C90.8457 264.46 91.0509 263.763 98.613 256.137C104.387 250.315 123.584 238.057 138.603 230.601C146.087 226.885 152.547 223.845 152.956 223.845C153.365 223.845 155.7 225.076 158.144 226.58ZM356.691 283.029C361.031 285.022 362.976 287.057 364.866 291.579C366.085 294.496 366.266 303.433 366.249 359.505C366.23 420.204 366.129 424.291 364.553 427.721C362.5 432.193 360.156 434.356 355.611 435.977C350.451 437.818 148.565 437.818 143.405 435.977C138.859 434.356 136.516 432.193 134.462 427.721C132.887 424.291 132.786 420.204 132.767 359.505C132.749 303.433 132.931 294.496 134.149 291.579C136.04 287.057 137.984 285.022 142.325 283.029C145.797 281.435 150.972 281.354 249.508 281.354C348.043 281.354 353.218 281.435 356.691 283.029ZM363.603 455.473C365.21 457.08 366.269 459.101 366.269 460.56C366.269 462.02 365.21 464.04 363.603 465.647L360.936 468.314H249.508H138.079L135.413 465.647C133.806 464.04 132.747 462.02 132.747 460.56C132.747 459.101 133.806 457.08 135.413 455.473L138.079 452.806H249.508H360.936L363.603 455.473Z" fill="black" stroke="black" stroke-width="7"/>
</svg>
